<?xml version="1.0" encoding="UTF-8" standalone="no"?>
<!-- Created with Inkscape (http://www.inkscape.org/) -->

<svg
   xmlns:dc="http://purl.org/dc/elements/1.1/"
   xmlns:cc="http://creativecommons.org/ns#"
   xmlns:rdf="http://www.w3.org/1999/02/22-rdf-syntax-ns#"
   xmlns:svg="http://www.w3.org/2000/svg"
   xmlns="http://www.w3.org/2000/svg"
   xmlns:sodipodi="http://sodipodi.sourceforge.net/DTD/sodipodi-0.dtd"
   xmlns:inkscape="http://www.inkscape.org/namespaces/inkscape"
   id="svg2"
   version="1.1"
   inkscape:version="0.48.4 r9939"
   width="525.9389"
   height="327.22656"
   xml:space="preserve"
   sodipodi:docname="thirdlayer.svg"><metadata
     id="metadata8"><rdf:RDF><cc:Work
         rdf:about=""><dc:format>image/svg+xml</dc:format><dc:type
           rdf:resource="http://purl.org/dc/dcmitype/StillImage" /><dc:title></dc:title></cc:Work></rdf:RDF></metadata><defs
     id="defs6"><clipPath
       clipPathUnits="userSpaceOnUse"
       id="clipPath18"><path
         d="m 0,0 369058,0 0,242919 L 0,242919 0,0 z"
         id="path20"
         inkscape:connector-curvature="0" /></clipPath><clipPath
       clipPathUnits="userSpaceOnUse"
       id="clipPath5380"><rect
         style="fill:#00bcbc;fill-opacity:0.78431373;stroke:#0000ff;stroke-width:0.80000001;stroke-miterlimit:4;stroke-opacity:1;stroke-dasharray:0.8, 0.8;stroke-dashoffset:0"
         id="rect5382"
         width="183359.58"
         height="109179.92"
         x="192762.64"
         y="-20461.072"
         rx="7.5928006"
         ry="7.5928006" /></clipPath><clipPath
       clipPathUnits="userSpaceOnUse"
       id="clipPath6978"><rect
         style="fill:#00bcbc;fill-opacity:0.78431373;stroke:#0000ff;stroke-width:0.80000001;stroke-miterlimit:4;stroke-opacity:1;stroke-dasharray:0.8, 0.8;stroke-dashoffset:0"
         id="rect6980"
         width="159329.55"
         height="97687.305"
         x="204777.67"
         y="-6356.4937"
         rx="6.0742407"
         ry="6.0742407" /></clipPath></defs><sodipodi:namedview
     pagecolor="#ffffff"
     bordercolor="#666666"
     borderopacity="1"
     objecttolerance="10"
     gridtolerance="10"
     guidetolerance="10"
     inkscape:pageopacity="0"
     inkscape:pageshadow="2"
     inkscape:window-width="556"
     inkscape:window-height="1011"
     id="namedview4"
     showgrid="true"
     fit-margin-top="0"
     fit-margin-left="0"
     fit-margin-right="0"
     fit-margin-bottom="0"
     inkscape:snap-grids="true"
     inkscape:zoom="1.1002036"
     inkscape:cx="287.83367"
     inkscape:cy="107.92744"
     inkscape:window-x="560"
     inkscape:window-y="37"
     inkscape:window-maximized="0"
     inkscape:current-layer="g10"><inkscape:grid
       type="xygrid"
       id="grid10522"
       empspacing="5"
       visible="true"
       enabled="true"
       snapvisiblegridlinesonly="true"
       originx="-7.1054274e-15px"
       originy="100.00001px" /></sodipodi:namedview><g
     id="g10"
     inkscape:groupmode="layer"
     inkscape:label="thirdlayer"
     transform="matrix(1.25,0,0,-1.25,-285.27205,483.90625)"><path
   d="m -178.92918,367.96884 726.49067,0 0,-478.18605 -726.49067,0 0,478.18605 z"
   style="fill:#000000;fill-opacity:0;fill-rule:nonzero;stroke:none"
   id="path28"
   inkscape:connector-curvature="0" /><path
   inkscape:connector-curvature="0"
   id="path44"
   style="fill:#ffffff;fill-opacity:1;fill-rule:nonzero;stroke:none"
   d="m 369.23563,208.6037 0,0 c 0,8.57779 7.10703,15.53146 15.87398,15.53146 l 0,0 c 4.21007,0 8.24766,-1.63635 11.22459,-4.54906 2.977,-2.91271 4.6494,-6.8632 4.6494,-10.9824 l 0,0 c 0,-8.57779 -7.10704,-15.53148 -15.87399,-15.53148 l 0,0 c -8.76695,0 -15.87398,6.95369 -15.87398,15.53148 z" /><path
   d="m 369.23563,208.6037 0,0 c 0,8.57779 7.10703,15.53146 15.87398,15.53146 l 0,0 c 4.21007,0 8.24766,-1.63635 11.22459,-4.54906 2.977,-2.91271 4.6494,-6.8632 4.6494,-10.9824 l 0,0 c 0,-8.57779 -7.10704,-15.53148 -15.87399,-15.53148 l 0,0 c -8.76695,0 -15.87398,6.95369 -15.87398,15.53148 z"
   style="fill:none;stroke:#000000;stroke-width:1.49999702;stroke-linecap:butt;stroke-linejoin:round;stroke-miterlimit:14.3355875;stroke-opacity:1;stroke-dasharray:none"
   id="path46"
   inkscape:connector-curvature="0" /><path
   inkscape:connector-curvature="0"
   id="path52"
   style="fill:#cfe2f3;fill-opacity:1;fill-rule:nonzero;stroke:none"
   d="m 332.43997,360.65193 181.79488,0 0,-15.51966 -181.79488,0 0,15.51966 z" /><path
   d="m 332.43997,360.65193 181.79488,0 0,-15.51966 -181.79488,0 0,15.51966 z"
   style="fill:none;stroke:#000000;stroke-width:1.5;stroke-linecap:butt;stroke-linejoin:round;stroke-miterlimit:14.3355875;stroke-opacity:1;stroke-dasharray:none"
   id="path54"
   inkscape:connector-curvature="0" /><path
   inkscape:connector-curvature="0"
   id="path60"
   style="fill:#ffffff;fill-opacity:1;fill-rule:nonzero;stroke:none"
   d="m 369.23557,318.11588 0,0 c 0,8.5778 7.10701,15.53147 15.87398,15.53147 l 0,0 c 4.21007,0 8.24765,-1.63635 11.22457,-4.54906 2.977,-2.91271 4.64942,-6.8632 4.64942,-10.98241 l 0,0 c 0,-8.57779 -7.10702,-15.53146 -15.87399,-15.53146 l 0,0 c -8.76697,0 -15.87398,6.95367 -15.87398,15.53146 z" /><path
   d="m 369.23557,318.11588 0,0 c 0,8.5778 7.10701,15.53147 15.87398,15.53147 l 0,0 c 4.21007,0 8.24765,-1.63635 11.22457,-4.54906 2.977,-2.91271 4.64942,-6.8632 4.64942,-10.98241 l 0,0 c 0,-8.57779 -7.10702,-15.53146 -15.87399,-15.53146 l 0,0 c -8.76697,0 -15.87398,6.95367 -15.87398,15.53146 z"
   style="fill:none;stroke:#000000;stroke-width:1.49999702;stroke-linecap:butt;stroke-linejoin:round;stroke-miterlimit:14.3355875;stroke-opacity:1;stroke-dasharray:none"
   id="path62"
   inkscape:connector-curvature="0" /><path
   d="m 439.52309,360.3152 0,-15.18895"
   style="fill:#000000;fill-opacity:0;fill-rule:nonzero;stroke:none"
   id="path70"
   inkscape:connector-curvature="0" /><path
   d="m 439.52309,360.3152 0,-15.18895"
   style="fill:none;stroke:#000000;stroke-width:1.49999702;stroke-linecap:butt;stroke-linejoin:round;stroke-miterlimit:14.3355875;stroke-opacity:1;stroke-dasharray:none"
   id="path72"
   inkscape:connector-curvature="0" /><path
   inkscape:connector-curvature="0"
   id="path78"
   style="fill:#f1c232;fill-opacity:1;fill-rule:nonzero;stroke:none"
   d="m 332.43988,251.09891 181.79491,0 0,-15.51965 -181.79491,0 0,15.51965 z" /><path
   d="m 332.43988,251.09891 181.79491,0 0,-15.51965 -181.79491,0 0,15.51965 z"
   style="fill:none;stroke:#000000;stroke-width:1.49999702;stroke-linecap:butt;stroke-linejoin:round;stroke-miterlimit:14.3355875;stroke-opacity:1;stroke-dasharray:none"
   id="path80"
   inkscape:connector-curvature="0" /><path
   d="m 439.52425,250.76269 0,-15.18895"
   style="fill:#000000;fill-opacity:0;fill-rule:nonzero;stroke:none"
   id="path88"
   inkscape:connector-curvature="0" /><path
   d="m 439.52425,250.76269 0,-15.18895"
   style="fill:none;stroke:#000000;stroke-width:1.49999702;stroke-linecap:butt;stroke-linejoin:round;stroke-miterlimit:14.3355875;stroke-opacity:1;stroke-dasharray:none"
   id="path90"
   inkscape:connector-curvature="0" /><path
   inkscape:connector-curvature="0"
   id="path96"
   style="fill:#e6b8af;fill-opacity:1;fill-rule:nonzero;stroke:none"
   d="m 332.43997,141.62661 181.79488,0 0,-15.51965 -181.79488,0 0,15.51965 z" /><path
   d="m 332.43997,141.62661 181.79488,0 0,-15.51965 -181.79488,0 0,15.51965 z"
   style="fill:none;stroke:#000000;stroke-width:1.49999702;stroke-linecap:butt;stroke-linejoin:round;stroke-miterlimit:14.3355875;stroke-opacity:1;stroke-dasharray:none"
   id="path98"
   inkscape:connector-curvature="0" /><path
   d="m 439.52309,141.28984 0,-15.18894"
   style="fill:#000000;fill-opacity:0;fill-rule:nonzero;stroke:none"
   id="path106"
   inkscape:connector-curvature="0" /><path
   d="m 439.52309,141.28984 0,-15.18894"
   style="fill:none;stroke:#000000;stroke-width:1.49999702;stroke-linecap:butt;stroke-linejoin:round;stroke-miterlimit:14.3355875;stroke-opacity:1;stroke-dasharray:none"
   id="path108"
   inkscape:connector-curvature="0" /><path
   d="m 358.75921,250.6539 0,-14.85823"
   style="fill:#000000;fill-opacity:0;fill-rule:nonzero;stroke:none"
   id="path116"
   inkscape:connector-curvature="0" /><path
   d="m 358.75921,250.6539 0,-14.85823"
   style="fill:none;stroke:#000000;stroke-width:1.49999702;stroke-linecap:butt;stroke-linejoin:round;stroke-miterlimit:14.3355875;stroke-opacity:1;stroke-dasharray:none"
   id="path118"
   inkscape:connector-curvature="0" /><path
   d="m 383.71155,250.79944 0,-14.85824"
   style="fill:#000000;fill-opacity:0;fill-rule:nonzero;stroke:none"
   id="path126"
   inkscape:connector-curvature="0" /><path
   d="m 383.71155,250.79944 0,-14.85824"
   style="fill:none;stroke:#000000;stroke-width:1.49999702;stroke-linecap:butt;stroke-linejoin:round;stroke-miterlimit:14.3355875;stroke-opacity:1;stroke-dasharray:none"
   id="path128"
   inkscape:connector-curvature="0" /><path
   d="m 371.55889,141.12494 0,-14.85824"
   style="fill:#000000;fill-opacity:0;fill-rule:nonzero;stroke:none"
   id="path136"
   inkscape:connector-curvature="0" /><path
   d="m 371.55889,141.12494 0,-14.85824"
   style="fill:none;stroke:#000000;stroke-width:1.49999702;stroke-linecap:butt;stroke-linejoin:round;stroke-miterlimit:14.3355875;stroke-opacity:1;stroke-dasharray:none"
   id="path138"
   inkscape:connector-curvature="0" /><path
   d="m 408.27142,141.16467 0,-14.85824"
   style="fill:#000000;fill-opacity:0;fill-rule:nonzero;stroke:none"
   id="path146"
   inkscape:connector-curvature="0" /><path
   d="m 408.27142,141.16467 0,-14.85824"
   style="fill:none;stroke:#000000;stroke-width:1.49999702;stroke-linecap:butt;stroke-linejoin:round;stroke-miterlimit:14.3355875;stroke-opacity:1;stroke-dasharray:none"
   id="path148"
   inkscape:connector-curvature="0" /><path
   d="m 342.74104,359.9098 83.92896,0 0,-14.85824 -83.92896,0 0,14.85824 z"
   style="fill:#000000;fill-opacity:0;fill-rule:nonzero;stroke:none"
   id="path156"
   inkscape:connector-curvature="0" /><text
   id="text162"
   transform="scale(1,-1)"
   x="376.48898"
   y="-349.67569"
   style="font-size:8.99998188px"><tspan
     id="tspan164"
     sodipodi:role="line"
     y="-349.67569"
     x="376.48898 381.81696 387.14496"
     style="font-size:7.99998426px;font-variant:normal;font-weight:normal;writing-mode:lr-tb;fill:#000000;fill-opacity:1;fill-rule:nonzero;stroke:none;font-family:ArialMT;-inkscape-font-specification:ArialMT">VPN</tspan></text>



<path
   d="m 452.37473,360.31531 61.8424,0 0,-15.18894 -61.8424,0 0,15.18894 z"
   style="fill:#000000;fill-opacity:0;fill-rule:nonzero;stroke:none"
   id="path174"
   inkscape:connector-curvature="0" /><text
   id="text180"
   transform="scale(1,-1)"
   x="467.53403"
   y="-349.91583"
   style="font-size:8.99998188px"><tspan
     id="tspan182"
     sodipodi:role="line"
     y="-349.91583"
     x="467.53403 473.75 478.63 483.50998 488.83798 494.16595"
     style="font-size:7.99998426px;font-variant:normal;font-weight:normal;writing-mode:lr-tb;fill:#000000;fill-opacity:1;fill-rule:nonzero;stroke:none;font-family:ArialMT;-inkscape-font-specification:ArialMT">OFFSET</tspan></text>



<path
   d="m 452.3983,250.96899 61.84239,0 0,-15.18894 -61.84239,0 0,15.18894 z"
   style="fill:#000000;fill-opacity:0;fill-rule:nonzero;stroke:none"
   id="path192"
   inkscape:connector-curvature="0" /><text
   id="text198"
   transform="scale(1,-1)"
   x="467.55759"
   y="-240.56937"
   style="font-size:8.99998188px"><tspan
     id="tspan200"
     sodipodi:role="line"
     y="-240.56937"
     x="467.55759 473.77359 478.65356 483.53357 488.86157 494.18954"
     style="font-size:7.99998426px;font-variant:normal;font-weight:normal;writing-mode:lr-tb;fill:#000000;fill-opacity:1;fill-rule:nonzero;stroke:none;font-family:ArialMT;-inkscape-font-specification:ArialMT">OFFSET</tspan></text>



<path
   d="m 452.3731,141.62464 61.8424,0 0,-15.51965 -61.8424,0 0,15.51965 z"
   style="fill:#000000;fill-opacity:0;fill-rule:nonzero;stroke:none"
   id="path210"
   inkscape:connector-curvature="0" /><text
   id="text216"
   transform="scale(1,-1)"
   x="467.53238"
   y="-131.05951"
   style="font-size:8.99998188px"><tspan
     id="tspan218"
     sodipodi:role="line"
     y="-131.05951"
     x="467.53238 473.74838 478.62836 483.50836 488.83633 494.16434"
     style="font-size:7.99998426px;font-variant:normal;font-weight:normal;writing-mode:lr-tb;fill:#000000;fill-opacity:1;fill-rule:nonzero;stroke:none;font-family:ArialMT;-inkscape-font-specification:ArialMT">OFFSET</tspan></text>



<path
   d="m 369.16803,330.4384 31.74797,0 0,-24.63774 -31.74797,0 0,24.63774 z"
   style="fill:#000000;fill-opacity:0;fill-rule:nonzero;stroke:none"
   id="path228"
   inkscape:connector-curvature="0" /><text
   id="text234"
   transform="scale(1,-1)"
   x="376.68802"
   y="-315.52454"
   style="font-size:8.99998188px"><tspan
     id="tspan236"
     sodipodi:role="line"
     y="-315.52454"
     x="376.68802 382.51901 388.35001"
     style="font-size:6.99998569px;font-variant:normal;font-weight:normal;writing-mode:lr-tb;fill:#000000;fill-opacity:1;fill-rule:nonzero;stroke:none;font-family:ArialMT;-inkscape-font-specification:ArialMT">MMU</tspan></text>



<path
   d="m 333.62791,250.82626 25.13376,0 0,-15.18894 -25.13376,0 0,15.18894 z"
   style="fill:#000000;fill-opacity:0;fill-rule:nonzero;stroke:none"
   id="path246"
   inkscape:connector-curvature="0" /><text
   id="text252"
   transform="scale(1,-1)"
   x="333.00977"
   y="-240.42664"
   style="font-size:8.99998188px"><tspan
     id="tspan254"
     sodipodi:role="line"
     y="-240.42664"
     x="333.00977 338.33777"
     style="font-size:7.99998426px;font-variant:normal;font-weight:normal;writing-mode:lr-tb;fill:#000000;fill-opacity:1;fill-rule:nonzero;stroke:none;font-family:ArialMT;-inkscape-font-specification:ArialMT">PX</tspan></text>



<path
   d="m 360.29071,251.13927 25.1338,0 0,-15.51965 -25.1338,0 0,15.51965 z"
   style="fill:#000000;fill-opacity:0;fill-rule:nonzero;stroke:none"
   id="path264"
   inkscape:connector-curvature="0" /><text
   id="text270"
   transform="scale(1,-1)"
   x="365.70908"
   y="-240.93785"
   style="font-size:8.99998188px"><tspan
     id="tspan272"
     sodipodi:role="line"
     y="-240.93785"
     x="365.70908 371.03705"
     style="font-size:7.99998426px;font-variant:normal;font-weight:normal;writing-mode:lr-tb;fill:#000000;fill-opacity:1;fill-rule:nonzero;stroke:none;font-family:ArialMT;-inkscape-font-specification:ArialMT">PY</tspan></text>



<path
   d="m 339.81781,141.62661 26.76373,0 0,-15.18894 -26.76373,0 0,15.18894 z"
   style="fill:#000000;fill-opacity:0;fill-rule:nonzero;stroke:none"
   id="path282"
   inkscape:connector-curvature="0" /><text
   id="text288"
   transform="scale(1,-1)"
   x="347.20557"
   y="-131.22685"
   style="font-size:8.99998188px"><tspan
     id="tspan290"
     sodipodi:role="line"
     y="-131.22685"
     x="347.20557 353.86954"
     style="font-size:7.99998426px;font-variant:normal;font-weight:normal;writing-mode:lr-tb;fill:#000000;fill-opacity:1;fill-rule:nonzero;stroke:none;font-family:ArialMT;-inkscape-font-specification:ArialMT">MX</tspan></text>



<path
   d="m 376.53329,141.46126 26.76373,0 0,-15.18895 -26.76373,0 0,15.18895 z"
   style="fill:#000000;fill-opacity:0;fill-rule:nonzero;stroke:none"
   id="path300"
   inkscape:connector-curvature="0" /><text
   id="text306"
   transform="scale(1,-1)"
   x="383.92102"
   y="-131.06148"
   style="font-size:8.99998188px"><tspan
     id="tspan308"
     sodipodi:role="line"
     y="-131.06148"
     x="383.92102 390.58499"
     style="font-size:7.99998426px;font-variant:normal;font-weight:normal;writing-mode:lr-tb;fill:#000000;fill-opacity:1;fill-rule:nonzero;stroke:none;font-family:ArialMT;-inkscape-font-specification:ArialMT">MY</tspan></text>



<path
   d="m 384.97741,345.46483 0.0709,-12.47241"
   style="fill:#000000;fill-opacity:0;fill-rule:nonzero;stroke:none"
   id="path318"
   inkscape:connector-curvature="0" /><path
   d="m 384.97741,345.46483 0.0198,-3.47258"
   style="fill:none;stroke:#000000;stroke-width:1.49999702;stroke-linecap:butt;stroke-linejoin:round;stroke-miterlimit:14.3355875;stroke-opacity:1;stroke-dasharray:none"
   id="path320"
   inkscape:connector-curvature="0" /><path
   d="m 382.51962,341.97818 2.51617,-6.79295 2.43892,6.8211 -4.95509,-0.0281 z"
   style="fill:#000000;fill-opacity:1;fill-rule:evenodd;stroke:#000000;stroke-width:1.49999702;stroke-linecap:butt;stroke-linejoin:miter;stroke-miterlimit:11.47371292;stroke-opacity:1;stroke-dasharray:none"
   id="path322"
   inkscape:connector-curvature="0" /><path
   d="m 232.33968,367.96884 92.90533,0 0,-18.16532 -92.90533,0 0,18.16532 z"
   style="fill:#000000;fill-opacity:0;fill-rule:nonzero;stroke:none"
   id="path342"
   inkscape:connector-curvature="0" /><text
   id="text348"
   transform="scale(1,-1)"
   x="239.08966"
   y="-350.65887"
   style="font-size:8.99998188px"><tspan
     id="tspan350"
     sodipodi:role="line"
     y="-350.65887"
     x="239.08966 246.41565 248.85764 252.52063 255.56763 261.68362 267.79959 270.24161 273.2886 280.61459 286.73056 292.84656 296.50955 302.62555 308.12552"
     style="font-size:10.99997807px;font-variant:normal;font-weight:normal;writing-mode:lr-tb;fill:#000000;fill-opacity:1;fill-rule:nonzero;stroke:none;font-family:ArialMT;-inkscape-font-specification:ArialMT">Virtual Address</tspan></text>



<path
   d="m 228.21764,297.53394 101.14941,0 0,-27.96845 -101.14941,0 0,27.96845 z"
   style="fill:#000000;fill-opacity:0;fill-rule:nonzero;stroke:none"
   id="path360"
   inkscape:connector-curvature="0" /><text
   id="text366"
   transform="scale(1,-1)"
   x="234.96762"
   y="-240.22382"
   style="font-size:8.99998188px"><tspan
     id="tspan368"
     sodipodi:role="line"
     y="-240.22382"
     x="234.96762 242.29361 248.40959 253.90958 259.40958 261.85156 267.35156 273.46756 275.90955 278.95654 286.2825 292.3985 298.5145 302.17749 308.29349 313.79346"
     style="font-size:10.99997807px;font-variant:normal;font-weight:normal;writing-mode:lr-tb;fill:#000000;fill-opacity:1;fill-rule:nonzero;stroke:none;font-family:ArialMT;-inkscape-font-specification:ArialMT">Physical Address</tspan></text>



<path
   d="m 228.21764,188.164 101.14941,0 0,-18.16532 -101.14941,0 0,18.16532 z"
   style="fill:#000000;fill-opacity:0;fill-rule:nonzero;stroke:none"
   id="path378"
   inkscape:connector-curvature="0" /><text
   id="text384"
   transform="scale(1,-1)"
   x="234.96762"
   y="-130.85373"
   style="font-size:8.99998188px"><tspan
     id="tspan386"
     sodipodi:role="line"
     y="-130.85373"
     x="234.96762 244.1306 250.24658 255.74658 261.86258 264.30457 270.42056 276.53653 279.58353 286.90952 293.02551 299.14151 302.80447 308.92047 314.42047"
     style="font-size:10.99997807px;font-variant:normal;font-weight:normal;writing-mode:lr-tb;fill:#000000;fill-opacity:1;fill-rule:nonzero;stroke:none;font-family:ArialMT;-inkscape-font-specification:ArialMT">Machine Address</tspan></text>



<path
   d="m 374.28593,220.50163 21.59051,0 0,-24.63774 -21.59051,0 0,24.63774 z"
   style="fill:#000000;fill-opacity:0;fill-rule:nonzero;stroke:none"
   id="path396"
   inkscape:connector-curvature="0" /><text
   id="text402"
   transform="scale(1,-1)"
   x="382.85876"
   y="-205.37761"
   style="font-size:8.99998188px"><tspan
     id="tspan404"
     y="-205.37761"
     x="382.85876"
     style="font-size:7.99998426px;font-variant:normal;font-weight:normal;writing-mode:lr-tb;fill:#000000;fill-opacity:1;fill-rule:nonzero;stroke:none;font-family:ArialMT;-inkscape-font-specification:ArialMT">?</tspan></text>



<path
   d="m 384.97461,235.83562 0.0709,-12.47242"
   style="fill:#000000;fill-opacity:0;fill-rule:nonzero;stroke:none"
   id="path414"
   inkscape:connector-curvature="0" /><path
   d="m 384.97461,235.83562 0.0197,-3.47258"
   style="fill:none;stroke:#000000;stroke-width:1.49999702;stroke-linecap:butt;stroke-linejoin:round;stroke-miterlimit:14.3355875;stroke-opacity:1;stroke-dasharray:none"
   id="path416"
   inkscape:connector-curvature="0" /><path
   d="m 382.51678,232.34896 2.51618,-6.79294 2.43889,6.8211 -4.95507,-0.0282 z"
   style="fill:#000000;fill-opacity:1;fill-rule:evenodd;stroke:#000000;stroke-width:1.49999702;stroke-linecap:butt;stroke-linejoin:miter;stroke-miterlimit:11.47371292;stroke-opacity:1;stroke-dasharray:none"
   id="path418"
   inkscape:connector-curvature="0" /><path
   d="m 385.09946,192.29275 -0.0473,-11.07871"
   style="fill:#000000;fill-opacity:0;fill-rule:nonzero;stroke:none"
   id="path426"
   inkscape:connector-curvature="0" /><path
   d="m 385.09946,192.29275 -0.009,-2.07881"
   style="fill:none;stroke:#000000;stroke-width:1.49999702;stroke-linecap:butt;stroke-linejoin:round;stroke-miterlimit:14.3355875;stroke-opacity:1;stroke-dasharray:none"
   id="path428"
   inkscape:connector-curvature="0" /><path
   d="m 382.613,190.2245 2.44858,-6.81763 2.50657,6.7965 -4.95515,0.0211 z"
   style="fill:#000000;fill-opacity:1;fill-rule:evenodd;stroke:#000000;stroke-width:1.49999702;stroke-linecap:butt;stroke-linejoin:miter;stroke-miterlimit:11.47371292;stroke-opacity:1;stroke-dasharray:none"
   id="path430"
   inkscape:connector-curvature="0" /><rect
   style="fill:#ffffff;fill-opacity:1;stroke:none"
   id="rect6982"
   width="10.283286"
   height="12.854108"
   x="379.45328"
   y="-214.51118"
   transform="scale(1,-1)"
   rx="4.8593926"
   ry="4.8593926" /><text
   xml:space="preserve"
   style="font-size:8px;font-style:normal;font-variant:normal;font-weight:normal;font-stretch:normal;line-height:125%;letter-spacing:0px;word-spacing:0px;fill:#000000;fill-opacity:1;stroke:none;font-family:Nimbus Roman No9 L;-inkscape-font-specification:Sans"
   x="376.88245"
   y="-205.77039"
   id="text7752"
   sodipodi:linespacing="125%"
   transform="scale(1,-1)"><tspan
     sodipodi:role="line"
     id="tspan7754"
     x="376.88245"
     y="-205.77039">HAT</tspan></text>



<text
   xml:space="preserve"
   style="font-size:12px;font-style:normal;font-variant:normal;font-weight:normal;font-stretch:normal;line-height:125%;letter-spacing:0px;word-spacing:0px;fill:#000000;fill-opacity:1;stroke:none;font-family:Nimbus Roman No9 L;-inkscape-font-specification:Sans"
   x="149.97224"
   y="-8.8622456"
   id="text7781"
   sodipodi:linespacing="125%"
   transform="matrix(0.8,0,0,-0.8,224.17566,367.96884)"><tspan
     sodipodi:role="line"
     id="tspan7783"
     x="149.97224"
     y="-8.8622456" /></text>



<rect
   ry="3.8875141"
   rx="3.8875141"
   transform="scale(1,-1)"
   y="-333.34375"
   x="564.21765"
   height="20"
   width="84"
   id="rect10572"
   style="fill:#ffffff;fill-opacity:1;stroke:#000000;stroke-width:1.5;stroke-miterlimit:4;stroke-opacity:1;stroke-dasharray:none;stroke-dashoffset:0" /><path
   inkscape:connector-curvature="0"
   id="path52-1"
   style="fill:#cfe2f3;fill-opacity:1;fill-rule:nonzero;stroke:#000000;stroke-width:1.5;stroke-miterlimit:4;stroke-opacity:1;stroke-dasharray:none"
   d="m 332.70264,386.37695 181.79488,0 0,-15.51966 -181.79488,0 0,15.51966 z" /><text
   xml:space="preserve"
   style="font-size:16px;font-style:normal;font-variant:normal;font-weight:normal;font-stretch:normal;line-height:125%;letter-spacing:0px;word-spacing:0px;fill:#000000;fill-opacity:1;stroke:none;font-family:Nimbus Roman No9 L;-inkscape-font-specification:Sans"
   x="345.29648"
   y="-373.68359"
   id="text10387"
   sodipodi:linespacing="125%"
   transform="scale(1,-1)"><tspan
     sodipodi:role="line"
     id="tspan10389"
     x="345.29648"
     y="-373.68359">8   3   6   8   1   4   2   4</tspan></text>



<path
   d="m 439.187,386.18778 0,-15.18895"
   style="fill:none;stroke:#000000;stroke-width:1.49999702;stroke-linecap:butt;stroke-linejoin:round;stroke-miterlimit:14.3355875;stroke-opacity:1;stroke-dasharray:none"
   id="path72-9"
   inkscape:connector-curvature="0" /><path
   d="m 331.93137,290.12472 181.79491,0 0,-15.51965 -181.79491,0 0,15.51965 z"
   style="fill:#f1c232;fill-opacity:1;fill-rule:nonzero;stroke:none"
   id="path78-9"
   inkscape:connector-curvature="0" /><path
   inkscape:connector-curvature="0"
   id="path80-0"
   style="fill:none;stroke:#000000;stroke-width:1.49999702;stroke-linecap:butt;stroke-linejoin:round;stroke-miterlimit:14.3355875;stroke-opacity:1;stroke-dasharray:none"
   d="m 331.93137,290.12472 181.79491,0 0,-15.51965 -181.79491,0 0,15.51965 z" /><path
   inkscape:connector-curvature="0"
   id="path88-5"
   style="fill:#000000;fill-opacity:0;fill-rule:nonzero;stroke:none"
   d="m 439.01574,289.7885 0,-15.18895" /><path
   inkscape:connector-curvature="0"
   id="path90-5"
   style="fill:none;stroke:#000000;stroke-width:1.49999702;stroke-linecap:butt;stroke-linejoin:round;stroke-miterlimit:14.3355875;stroke-opacity:1;stroke-dasharray:none"
   d="m 439.01574,289.7885 0,-15.18895" /><path
   inkscape:connector-curvature="0"
   id="path192-2"
   style="fill:#000000;fill-opacity:0;fill-rule:nonzero;stroke:none"
   d="m 451.88979,289.9948 61.84239,0 0,-15.18894 -61.84239,0 0,15.18894 z" /><path
   transform="matrix(0.8,0,0,-0.8,228.21764,367.96884)"
   d="m 445,55.781357 c 0,4.142135 -3.35786,7.5 -7.5,7.5 -4.14214,0 -7.5,-3.357865 -7.5,-7.5 0,-4.142136 3.35786,-7.5 7.5,-7.5 4.14214,0 7.5,3.357864 7.5,7.5 z"
   sodipodi:ry="7.5"
   sodipodi:rx="7.5"
   sodipodi:cy="55.781357"
   sodipodi:cx="437.5"
   id="path10524"
   style="fill:#41ffff;fill-opacity:1;stroke:#000000;stroke-width:1.875;stroke-miterlimit:4;stroke-opacity:1;stroke-dasharray:none;stroke-dashoffset:0"
   sodipodi:type="arc" /><path
   transform="matrix(0.8,0,0,-0.8,228.21764,367.96884)"
   d="m 515,55.781357 c 0,4.142135 -3.35786,7.5 -7.5,7.5 -4.14214,0 -7.5,-3.357865 -7.5,-7.5 0,-4.142136 3.35786,-7.5 7.5,-7.5 4.14214,0 7.5,3.357864 7.5,7.5 z"
   sodipodi:ry="7.5"
   sodipodi:rx="7.5"
   sodipodi:cy="55.781357"
   sodipodi:cx="507.5"
   id="path10526"
   style="fill:#41ffff;fill-opacity:1;stroke:#000000;stroke-width:1.875;stroke-miterlimit:4;stroke-opacity:1;stroke-dasharray:none;stroke-dashoffset:0"
   sodipodi:type="arc" /><path
   transform="matrix(0.8,0,0,-0.8,228.21764,367.96884)"
   d="m 445,125.78136 c 0,4.14213 -3.35786,7.5 -7.5,7.5 -4.14214,0 -7.5,-3.35787 -7.5,-7.5 0,-4.14214 3.35786,-7.5 7.5,-7.5 4.14214,0 7.5,3.35786 7.5,7.5 z"
   sodipodi:ry="7.5"
   sodipodi:rx="7.5"
   sodipodi:cy="125.78136"
   sodipodi:cx="437.5"
   id="path10528"
   style="fill:#ffffff;fill-opacity:1;stroke:#000000;stroke-width:1.875;stroke-miterlimit:4;stroke-opacity:1;stroke-dasharray:none;stroke-dashoffset:0"
   sodipodi:type="arc" /><path
   d="m 445,125.78136 c 0,4.14213 -3.35786,7.5 -7.5,7.5 -4.14214,0 -7.5,-3.35787 -7.5,-7.5 0,-4.14214 3.35786,-7.5 7.5,-7.5 4.14214,0 7.5,3.35786 7.5,7.5 z"
   sodipodi:ry="7.5"
   sodipodi:rx="7.5"
   sodipodi:cy="125.78136"
   sodipodi:cx="437.5"
   id="path10528-7"
   style="fill:#ffffff;fill-opacity:1;stroke:#000000;stroke-width:1.875;stroke-miterlimit:4;stroke-opacity:1;stroke-dasharray:none;stroke-dashoffset:0"
   sodipodi:type="arc"
   transform="matrix(0.8,0,0,-0.8,284.10432,368.08215)" /><text
   transform="scale(1,-1)"
   sodipodi:linespacing="125%"
   id="text10548"
   y="-262.06052"
   x="552.15765"
   style="font-size:16px;font-style:normal;font-variant:normal;font-weight:normal;font-stretch:normal;line-height:125%;letter-spacing:0px;word-spacing:0px;fill:#000000;fill-opacity:1;stroke:none;font-family:Nimbus Roman No9 L;-inkscape-font-specification:Sans"
   xml:space="preserve"><tspan
     y="-262.06052"
     x="552.15765"
     id="tspan10550"
     sodipodi:role="line" /></text>



<text
   transform="scale(1,-1)"
   sodipodi:linespacing="125%"
   id="text10552"
   y="-263.87839"
   x="575.78967"
   style="font-size:8px;font-style:normal;font-variant:normal;font-weight:normal;font-stretch:normal;line-height:125%;letter-spacing:0px;word-spacing:0px;fill:#000000;fill-opacity:1;stroke:none;font-family:Nimbus Roman No9 L;-inkscape-font-specification:Sans"
   xml:space="preserve"><tspan
     y="-263.87839"
     x="575.78967"
     id="tspan10554"
     sodipodi:role="line" /></text>



<text
   transform="scale(1,-1)"
   sodipodi:linespacing="125%"
   id="text10556"
   y="-264.70105"
   x="576.21765"
   style="font-size:8px;font-style:normal;font-variant:normal;font-weight:normal;font-stretch:normal;line-height:125%;letter-spacing:0px;word-spacing:0px;fill:#000000;fill-opacity:1;stroke:none;font-family:Nimbus Roman No9 L;-inkscape-font-specification:Sans"
   xml:space="preserve"><tspan
     y="-264.70105"
     x="576.21765"
     id="tspan10558"
     sodipodi:role="line">0</tspan></text>



<text
   transform="scale(1,-1)"
   sodipodi:linespacing="125%"
   id="text10560"
   y="-321.34375"
   x="576.21765"
   style="font-size:8px;font-style:normal;font-variant:normal;font-weight:normal;font-stretch:normal;line-height:125%;letter-spacing:0px;word-spacing:0px;fill:#000000;fill-opacity:1;stroke:none;font-family:Nimbus Roman No9 L;-inkscape-font-specification:Sans"
   xml:space="preserve"><tspan
     y="-321.34375"
     x="576.21765"
     id="tspan10562"
     sodipodi:role="line">1</tspan></text>



<text
   transform="scale(1,-1)"
   sodipodi:linespacing="125%"
   id="text10564"
   y="-264.82959"
   x="632.08911"
   style="font-size:8px;font-style:normal;font-variant:normal;font-weight:normal;font-stretch:normal;line-height:125%;letter-spacing:0px;word-spacing:0px;fill:#000000;fill-opacity:1;stroke:none;font-family:Nimbus Roman No9 L;-inkscape-font-specification:Sans"
   xml:space="preserve"><tspan
     y="-264.82959"
     x="632.08911"
     id="tspan10566"
     sodipodi:role="line">2</tspan></text>



<text
   transform="scale(1,-1)"
   sodipodi:linespacing="125%"
   id="text10568"
   y="-320.70105"
   x="632.47473"
   style="font-size:8px;font-style:normal;font-variant:normal;font-weight:normal;font-stretch:normal;line-height:125%;letter-spacing:0px;word-spacing:0px;fill:#000000;fill-opacity:1;stroke:none;font-family:Nimbus Roman No9 L;-inkscape-font-specification:Sans"
   xml:space="preserve"><tspan
     y="-320.70105"
     x="632.47473"
     id="tspan10570"
     sodipodi:role="line">3</tspan></text>



<text
   transform="scale(1,-1)"
   sodipodi:linespacing="125%"
   id="text10574"
   y="-373.34375"
   x="603.21765"
   style="font-size:8px;font-style:normal;font-variant:normal;font-weight:normal;font-stretch:normal;text-align:center;line-height:125%;letter-spacing:0px;word-spacing:0px;text-anchor:middle;fill:#000000;fill-opacity:1;stroke:none;font-family:Nimbus Roman No9 L;-inkscape-font-specification:Sans"
   xml:space="preserve"><tspan
     y="-373.34375"
     x="604.21765"
     id="tspan10576"
     sodipodi:role="line">Instance lancée sur les </tspan><tspan
     id="tspan10580"
     y="-363.34375"
     x="603.21765"
     sodipodi:role="line">cluster 2 et 3 :</tspan><tspan
     id="tspan10584"
     y="-353.34375"
     x="604.21765"
     sodipodi:role="line">largeur en X = 2 -&gt; pxl = 1 </tspan><tspan
     id="tspan10586"
     y="-343.34375"
     x="603.21765"
     sodipodi:role="line">largeur en Y = 1 -&gt; pyl = 0</tspan></text>



<text
   transform="scale(1,-1)"
   xml:space="preserve"
   style="font-size:16px;font-style:normal;font-variant:normal;font-weight:normal;font-stretch:normal;line-height:125%;letter-spacing:0px;word-spacing:0px;fill:#000000;fill-opacity:1;stroke:none;font-family:Nimbus Roman No9 L;-inkscape-font-specification:Sans"
   x="345.29648"
   y="-276.96988"
   id="text10387-6"
   sodipodi:linespacing="125%"><tspan
     sodipodi:role="line"
     id="tspan10389-2"
     x="345.29648"
     y="-276.96988">B   1   4   8   7   4   2   4</tspan></text>



<text
   transform="matrix(-0.06464122,-0.50418649,-1.9812841,0.01644954,0,0)"
   sodipodi:linespacing="125%"
   id="text10609"
   y="-153.69823"
   x="-515.4939"
   style="font-size:15.85870552px;font-style:normal;font-variant:normal;font-weight:normal;font-stretch:normal;line-height:125%;letter-spacing:0px;word-spacing:0px;fill:#000000;fill-opacity:1;stroke:none;font-family:Nimbus Roman No9 L;-inkscape-font-specification:Sans"
   xml:space="preserve"><tspan
     y="-153.69823"
     x="-515.4939"
     id="tspan10611"
     sodipodi:role="line">{</tspan></text>



<text
   transform="matrix(-0.06289654,-0.51817202,-1.927809,0.01690583,0,0)"
   sodipodi:linespacing="125%"
   id="text10609-4"
   y="-172.57257"
   x="-501.98792"
   style="font-size:15.43067646px;font-style:normal;font-variant:normal;font-weight:normal;font-stretch:normal;line-height:125%;letter-spacing:0px;word-spacing:0px;fill:#000000;fill-opacity:1;stroke:none;font-family:Nimbus Roman No9 L;-inkscape-font-specification:Sans"
   xml:space="preserve"><tspan
     y="-172.57257"
     x="-501.98792"
     id="tspan10611-2"
     sodipodi:role="line">{</tspan></text>



<text
   transform="scale(1,-1)"
   sodipodi:linespacing="125%"
   id="text10634"
   y="-259.87912"
   x="336.19763"
   style="font-size:8px;font-style:normal;font-variant:normal;font-weight:normal;font-stretch:normal;line-height:125%;letter-spacing:0px;word-spacing:0px;fill:#000000;fill-opacity:1;stroke:none;font-family:Nimbus Roman No9 L;-inkscape-font-specification:Sans"
   xml:space="preserve"><tspan
     y="-259.87912"
     x="336.19763"
     id="tspan10636"
     sodipodi:role="line">pxl=1</tspan></text>



<text
   transform="scale(1,-1)"
   sodipodi:linespacing="125%"
   id="text10638"
   y="-260.42447"
   x="361.82925"
   style="font-size:8px;font-style:normal;font-variant:normal;font-weight:normal;font-stretch:normal;line-height:125%;letter-spacing:0px;word-spacing:0px;fill:#000000;fill-opacity:1;stroke:none;font-family:Nimbus Roman No9 L;-inkscape-font-specification:Sans"
   xml:space="preserve"><tspan
     y="-260.42447"
     x="361.82925"
     id="tspan10640"
     sodipodi:role="line">pyl=0</tspan></text>



<text
   xml:space="preserve"
   style="font-size:6.4000001px;font-style:normal;font-variant:normal;font-weight:normal;font-stretch:normal;line-height:125%;letter-spacing:0px;word-spacing:0px;fill:#000000;fill-opacity:1;stroke:none;font-family:Nimbus Roman No9 L;-inkscape-font-specification:Sans"
   x="345.86343"
   y="-240.80089"
   id="text10642"
   sodipodi:linespacing="125%"
   transform="scale(1,-1)"><tspan
     sodipodi:role="line"
     id="tspan10644"
     x="345.86343"
     y="-240.80089"
     style="font-weight:bold;-inkscape-font-specification:Nimbus Roman No9 L Bold">0b1</tspan></text>



<path
   inkscape:connector-curvature="0"
   id="path96-5"
   style="fill:#e6b8af;fill-opacity:1;fill-rule:nonzero;stroke:none"
   d="m 332.70264,181.11681 181.79488,0 0,-15.51965 -181.79488,0 0,15.51965 z" /><path
   d="m 332.70264,181.11681 181.79488,0 0,-15.51965 -181.79488,0 0,15.51965 z"
   style="fill:none;stroke:#000000;stroke-width:1.49999702;stroke-linecap:butt;stroke-linejoin:round;stroke-miterlimit:14.3355875;stroke-opacity:1;stroke-dasharray:none"
   id="path98-5"
   inkscape:connector-curvature="0" /><path
   d="m 439.78576,180.78004 0,-15.18894"
   style="fill:#000000;fill-opacity:0;fill-rule:nonzero;stroke:none"
   id="path106-0"
   inkscape:connector-curvature="0" /><path
   d="m 439.78576,180.78004 0,-15.18894"
   style="fill:none;stroke:#000000;stroke-width:1.49999702;stroke-linecap:butt;stroke-linejoin:round;stroke-miterlimit:14.3355875;stroke-opacity:1;stroke-dasharray:none"
   id="path108-5"
   inkscape:connector-curvature="0" /><path
   d="m 384.76097,301.95496 0.0709,-12.47242"
   style="fill:#000000;fill-opacity:0;fill-rule:nonzero;stroke:none"
   id="path414-4"
   inkscape:connector-curvature="0" /><path
   d="m 384.76097,301.95496 0.0197,-3.47258"
   style="fill:none;stroke:#000000;stroke-width:1.49999702;stroke-linecap:butt;stroke-linejoin:round;stroke-miterlimit:14.3355875;stroke-opacity:1;stroke-dasharray:none"
   id="path416-6"
   inkscape:connector-curvature="0" /><path
   d="m 382.30314,298.4683 2.51618,-6.79294 2.43889,6.8211 -4.95507,-0.0282 z"
   style="fill:#000000;fill-opacity:1;fill-rule:evenodd;stroke:#000000;stroke-width:1.49999702;stroke-linecap:butt;stroke-linejoin:miter;stroke-miterlimit:11.47371292;stroke-opacity:1;stroke-dasharray:none"
   id="path418-3"
   inkscape:connector-curvature="0" /><text
   xml:space="preserve"
   style="font-size:16px;font-style:normal;font-variant:normal;font-weight:normal;font-stretch:normal;line-height:125%;letter-spacing:0px;word-spacing:0px;fill:#000000;fill-opacity:1;stroke:none;font-family:Nimbus Roman No9 L;-inkscape-font-specification:Sans"
   x="344.71661"
   y="-168.61972"
   id="text10387-6-8"
   sodipodi:linespacing="125%"
   transform="scale(1,-1)"><tspan
     sodipodi:role="line"
     id="tspan10389-2-0"
     x="344.71661"
     y="-168.61972">F   1   4   8   7   4   2   4</tspan></text>



<text
   transform="matrix(-0.07701149,-0.42319957,-2.3604388,0.01380727,0,0)"
   sodipodi:linespacing="125%"
   id="text10609-49"
   y="-133.0209"
   x="-350.2146"
   style="font-size:18.89355659px;font-style:normal;font-variant:normal;font-weight:normal;font-stretch:normal;line-height:125%;letter-spacing:0px;word-spacing:0px;fill:#000000;fill-opacity:1;stroke:none;font-family:Nimbus Roman No9 L;-inkscape-font-specification:Sans"
   xml:space="preserve"><tspan
     y="-133.0209"
     x="-350.2146"
     id="tspan10611-7"
     sodipodi:role="line">{</tspan></text>



<text
   transform="matrix(-0.07610321,-0.42825034,-2.3325998,0.01397205,0,0)"
   sodipodi:linespacing="125%"
   id="text10609-4-9"
   y="-151.15935"
   x="-346.31107"
   style="font-size:18.67072487px;font-style:normal;font-variant:normal;font-weight:normal;font-stretch:normal;line-height:125%;letter-spacing:0px;word-spacing:0px;fill:#000000;fill-opacity:1;stroke:none;font-family:Nimbus Roman No9 L;-inkscape-font-specification:Sans"
   xml:space="preserve"><tspan
     y="-151.15935"
     x="-346.31107"
     id="tspan10611-2-7"
     sodipodi:role="line">{</tspan></text>



<text
   sodipodi:linespacing="125%"
   id="text10634-5"
   y="-148.33101"
   x="341.86841"
   style="font-size:8px;font-style:normal;font-variant:normal;font-weight:normal;font-stretch:normal;line-height:125%;letter-spacing:0px;word-spacing:0px;fill:#000000;fill-opacity:1;stroke:none;font-family:Nimbus Roman No9 L;-inkscape-font-specification:Sans"
   xml:space="preserve"
   transform="scale(1,-1)"><tspan
     y="-148.33101"
     x="341.86841"
     id="tspan10636-1"
     sodipodi:role="line">mxl=1</tspan></text>



<text
   sodipodi:linespacing="125%"
   id="text10638-3"
   y="-148.87636"
   x="379.13425"
   style="font-size:8px;font-style:normal;font-variant:normal;font-weight:normal;font-stretch:normal;line-height:125%;letter-spacing:0px;word-spacing:0px;fill:#000000;fill-opacity:1;stroke:none;font-family:Nimbus Roman No9 L;-inkscape-font-specification:Sans"
   xml:space="preserve"
   transform="scale(1,-1)"><tspan
     y="-148.87636"
     x="379.13425"
     id="tspan10640-7"
     sodipodi:role="line">myl=1</tspan></text>



<path
   style="fill:none;stroke:#000000;stroke-width:1px;stroke-linecap:butt;stroke-linejoin:miter;stroke-opacity:1"
   d="m 438,87.226552 0,54.999998"
   id="path10839"
   inkscape:connector-curvature="0"
   transform="matrix(0.8,0,0,-0.8,228.21764,387.125)" /><path
   style="fill:none;stroke:#000000;stroke-width:0.80000001px;stroke-linecap:butt;stroke-linejoin:miter;stroke-opacity:1"
   d="m 584.83586,266.94376 43.2,0"
   id="path10841"
   inkscape:connector-curvature="0" /><path
   style="fill:none;stroke:#000000;stroke-width:0.80000001px;stroke-linecap:butt;stroke-linejoin:miter;stroke-opacity:1"
   d="m 633.8905,316.81644 0,-44"
   id="path10839-8"
   inkscape:connector-curvature="0" /><path
   style="fill:none;stroke:#000000;stroke-width:0.80000001px;stroke-linecap:butt;stroke-linejoin:miter;stroke-opacity:1"
   d="m 584.3446,323.30733 43.2,0"
   id="path10841-0"
   inkscape:connector-curvature="0" /></g></svg>